<?xml version="1.0" standalone="no"?>
<!DOCTYPE svg PUBLIC "-//W3C//DTD SVG 20010904//EN"
 "http://www.w3.org/TR/2001/REC-SVG-20010904/DTD/svg10.dtd">
<svg version="1.0" xmlns="http://www.w3.org/2000/svg"
 width="872.000000pt" height="367.000000pt" viewBox="0 0 872.000000 367.000000"
 preserveAspectRatio="xMidYMid meet">

<g transform="translate(0.000000,367.000000) scale(0.100000,-0.100000)"
fill="#000000" stroke="none">
<path d="M3462 3456 l-143 -111 41 -3 40 -3 0 -175 0 -174 65 0 65 0 0 85 0
85 75 0 75 0 0 -85 0 -85 65 0 65 0 0 175 0 175 46 0 47 0 -62 47 -61 47 0 68
0 68 -35 0 c-34 0 -35 -1 -35 -41 l0 -41 -42 33 c-24 18 -47 36 -53 39 -5 4
-74 -43 -153 -104z"/>
<path d="M4614 3555 c-4 -8 -11 -39 -18 -68 l-11 -52 -59 -3 c-57 -3 -58 -3
-53 -30 3 -15 11 -89 18 -164 l13 -138 101 0 101 0 13 138 c7 75 15 149 18
165 5 26 4 27 -42 27 l-47 0 6 31 c3 17 6 35 6 40 0 5 25 9 55 9 54 0 55 0 55
30 l0 30 -75 0 c-58 0 -77 -3 -81 -15z"/>
<path d="M5252 3439 c-22 -38 -25 -40 -41 -25 -10 9 -42 24 -72 35 l-54 18
-50 -33 c-31 -22 -62 -34 -83 -34 -33 0 -42 -11 -58 -75 l-6 -25 196 0 196 0
-5 23 c-4 16 3 40 24 75 l30 51 -22 16 c-29 20 -29 20 -55 -26z"/>
<path d="M4880 3195 l64 -65 141 0 141 0 64 65 64 65 -269 0 -269 0 64 -65z"/>
<path d="M4547 2873 c-7 -36 -2 -43 31 -43 23 0 6 -20 -138 -165 l-165 -165
23 -22 22 -23 164 164 164 164 7 -33 c6 -28 10 -31 33 -25 15 4 28 8 30 10 7
7 -22 118 -34 130 -7 7 -34 16 -60 20 -26 3 -52 9 -59 11 -7 3 -15 -6 -18 -23z"/>
<path d="M3547 2814 c-49 -30 -55 -38 -47 -54 16 -29 27 -32 55 -14 l25 16 0
-176 0 -176 30 0 30 0 0 177 c0 170 1 176 18 160 10 -10 22 -17 27 -17 9 0 34
31 35 42 0 6 -104 78 -113 78 -1 0 -28 -16 -60 -36z"/>
<path d="M3300 2234 l0 -65 42 23 c27 15 51 39 66 66 l23 42 -65 0 -66 0 0
-66z"/>
<path d="M3500 2285 c0 -57 -92 -160 -158 -178 l-43 -11 3 -70 3 -69 41 -14
c60 -20 131 -92 146 -148 l12 -45 206 0 206 0 11 43 c15 53 85 126 145 148
l43 17 0 67 0 67 -43 17 c-69 26 -152 122 -152 176 0 13 -28 15 -210 15 -182
0 -210 -2 -210 -15z m250 -65 c0 -12 11 -31 25 -43 14 -12 29 -37 34 -54 l10
-33 -39 0 c-24 0 -40 5 -44 15 -7 20 -45 19 -52 0 -9 -21 14 -45 42 -45 31 0
72 -38 83 -75 11 -41 -5 -92 -34 -111 -14 -9 -25 -25 -25 -35 0 -15 -7 -19
-40 -19 -31 0 -40 4 -40 17 0 10 -11 26 -25 38 -14 11 -29 35 -34 53 l-10 32
39 0 c25 0 40 -5 44 -16 9 -23 50 -14 54 13 3 18 -4 24 -38 33 -46 12 -85 48
-92 83 -7 36 10 84 37 105 14 11 25 29 25 41 0 18 6 21 40 21 34 0 40 -3 40
-20z"/>
<path d="M4012 2258 c15 -27 39 -51 66 -66 l42 -23 0 65 0 66 -66 0 -65 0 23
-42z"/>
<path d="M5053 2237 c-53 -44 -141 -77 -210 -77 l-33 0 0 -107 c1 -246 59
-384 207 -492 l66 -49 33 20 c55 33 130 104 165 159 57 89 71 147 76 317 l5
152 -33 0 c-54 0 -138 26 -182 57 -23 15 -47 31 -53 36 -7 4 -24 -3 -41 -16z
m67 -257 l0 -50 55 0 55 0 0 -40 0 -40 -55 0 -55 0 0 -50 0 -50 -35 0 -35 0 0
50 0 50 -55 0 -55 0 0 40 0 40 55 0 55 0 0 50 0 50 35 0 35 0 0 -50z"/>
<path d="M4571 1951 c-23 -17 -23 -19 -6 -44 l17 -27 -141 0 -141 0 0 -30 0
-30 140 0 140 0 -15 -24 c-15 -23 -15 -25 7 -40 22 -16 24 -15 45 11 12 15 30
41 39 58 17 31 16 32 -20 88 -19 31 -37 57 -38 57 -2 0 -14 -9 -27 -19z"/>
<path d="M3300 1815 l0 -65 65 0 65 0 -20 40 c-18 34 -81 90 -102 90 -5 0 -8
-29 -8 -65z"/>
<path d="M4067 1855 c-20 -14 -46 -44 -57 -65 l-20 -40 65 0 65 0 0 65 c0 36
-3 65 -8 65 -4 0 -24 -11 -45 -25z"/>
<path d="M5670 1620 l0 -90 1365 0 1365 0 0 90 0 90 -1365 0 -1365 0 0 -90z"/>
<path d="M260 1600 l0 -90 1365 0 1365 0 0 90 0 90 -1365 0 -1365 0 0 -90z"/>
<path d="M3300 1650 l0 -30 410 0 410 0 0 30 0 30 -410 0 -410 0 0 -30z"/>
<path d="M3300 1545 l0 -35 410 0 410 0 0 35 0 35 -410 0 -410 0 0 -35z"/>
<path d="M4918 1017 c-104 -30 -165 -96 -175 -190 -9 -93 30 -168 109 -208 22
-11 79 -29 129 -39 129 -28 179 -59 179 -112 0 -44 -17 -68 -63 -89 -79 -36
-188 -19 -264 41 -47 37 -103 15 -103 -41 0 -55 117 -123 230 -135 160 -16
300 68 324 193 8 45 -10 129 -34 163 -28 40 -108 76 -218 100 -108 23 -146 42
-163 83 -16 37 -3 73 34 101 23 17 43 21 101 21 62 0 82 -5 136 -32 74 -39 94
-41 114 -11 24 33 20 57 -14 88 -66 61 -225 94 -322 67z"/>
<path d="M192 1004 l-22 -15 0 -354 0 -354 22 -15 c19 -13 58 -16 225 -16 190
0 204 1 223 20 25 25 25 55 0 80 -18 18 -33 20 -185 20 l-165 0 0 105 0 105
140 0 c127 0 142 2 160 20 11 11 20 29 20 40 0 11 -9 29 -20 40 -18 18 -33 20
-160 20 l-140 0 0 100 0 100 165 0 c152 0 167 2 185 20 11 11 20 29 20 40 0
11 -9 29 -20 40 -19 19 -33 20 -223 20 -167 0 -206 -3 -225 -16z"/>
<path d="M6646 944 c-10 -10 -16 -33 -16 -65 l0 -49 -38 0 c-51 0 -75 -19 -75
-60 0 -41 24 -60 75 -60 l38 0 0 -185 c0 -111 4 -194 11 -208 37 -82 228 -85
237 -4 5 42 -13 58 -59 51 -66 -11 -69 -4 -69 182 l0 164 50 0 c37 0 55 5 70
20 46 46 9 100 -70 100 l-50 0 0 43 c0 23 -7 53 -16 65 -18 26 -65 30 -88 6z"/>
<path d="M1547 836 c-20 -8 -52 -25 -69 -38 l-32 -25 -21 31 c-25 37 -48 43
-80 22 l-25 -16 0 -375 0 -374 22 -15 c31 -22 51 -20 76 7 20 21 22 34 22 140
0 64 2 117 5 117 2 0 21 -11 41 -25 130 -88 295 -34 366 120 33 72 33 208 -1
282 -31 69 -95 127 -162 147 -63 19 -92 19 -142 2z m134 -129 c100 -66 104
-250 7 -321 -16 -11 -49 -21 -80 -24 -44 -3 -59 0 -88 20 -99 68 -117 204 -38
294 38 43 59 53 119 53 32 1 56 -6 80 -22z"/>
<path d="M2160 835 c-60 -19 -124 -75 -158 -139 -24 -46 -27 -61 -27 -156 0
-118 14 -157 77 -217 84 -81 229 -102 340 -51 85 40 112 99 56 129 -16 9 -32
5 -80 -16 -80 -36 -158 -33 -212 9 -34 25 -66 72 -66 96 0 6 64 10 190 10 190
0 191 0 216 25 21 21 23 30 18 67 -17 114 -98 213 -197 243 -61 18 -97 18
-157 0z m150 -120 c35 -18 70 -61 70 -86 0 -18 -10 -19 -146 -19 l-145 0 6 23
c20 64 67 96 143 97 24 0 56 -7 72 -15z"/>
<path d="M2878 837 c-20 -8 -55 -29 -77 -46 -31 -25 -41 -29 -41 -16 0 21 -44
65 -65 65 -9 0 -27 -11 -40 -25 l-25 -24 0 -246 0 -246 25 -24 c31 -31 49 -31
80 0 25 24 25 27 25 200 l0 175 33 35 c55 61 161 61 197 2 18 -29 20 -51 20
-210 0 -176 0 -178 25 -202 29 -30 45 -31 76 -6 23 18 24 25 27 170 5 234 -20
344 -88 384 -39 23 -127 30 -172 14z"/>
<path d="M3415 841 c-108 -28 -167 -111 -145 -205 14 -64 55 -95 176 -135 81
-27 112 -43 128 -63 l20 -28 -21 -27 c-19 -26 -26 -28 -90 -28 -66 0 -73 2
-118 38 -53 41 -83 46 -108 19 -26 -29 -20 -55 21 -95 65 -64 181 -90 275 -63
101 29 158 111 138 199 -17 72 -51 99 -175 138 -132 42 -166 79 -116 129 36
36 152 21 189 -23 16 -20 62 -22 79 -5 35 35 -5 101 -80 132 -45 19 -133 28
-173 17z"/>
<path d="M3995 841 c-81 -21 -145 -77 -184 -161 -22 -46 -26 -69 -26 -140 0
-73 4 -93 28 -142 50 -102 135 -151 263 -152 71 -1 88 3 140 29 63 33 88 70
68 102 -22 35 -38 36 -96 9 -108 -51 -218 -24 -265 65 l-24 44 201 5 c187 5
203 6 217 25 35 47 -12 194 -80 251 -69 58 -168 85 -242 65z m142 -132 c31
-19 63 -64 63 -89 0 -6 -52 -10 -150 -10 l-150 0 11 28 c13 33 47 71 74 82 39
17 116 11 152 -11z"/>
<path d="M6150 835 c-49 -15 -107 -65 -121 -103 -23 -61 1 -146 51 -182 15
-11 69 -33 120 -49 118 -39 140 -53 140 -91 0 -45 -36 -63 -109 -58 -57 4 -77
13 -157 73 -8 6 -23 6 -41 -1 -39 -13 -43 -60 -9 -101 59 -71 232 -103 316
-59 100 52 136 139 92 226 -23 47 -68 74 -171 106 -98 30 -121 46 -121 85 0
59 102 81 169 36 62 -40 73 -45 93 -39 11 2 24 15 30 27 38 83 -154 171 -282
130z"/>
<path d="M7190 841 c-95 -31 -157 -89 -190 -179 -24 -65 -26 -170 -4 -234 33
-97 131 -171 244 -184 148 -17 313 94 225 152 -24 16 -28 15 -84 -10 -122 -54
-242 -15 -275 92 l-7 22 185 0 c238 0 256 8 241 103 -15 87 -81 179 -159 219
-43 22 -136 32 -176 19z m164 -150 c19 -18 36 -44 39 -57 l4 -24 -149 0 -149
0 7 23 c22 69 72 99 157 94 49 -3 62 -8 91 -36z"/>
<path d="M7887 836 c-37 -14 -70 -36 -94 -65 -7 -8 -14 -13 -15 -10 -2 2 -10
17 -18 33 -23 44 -45 54 -78 36 l-27 -16 -3 -264 c-2 -260 -2 -265 19 -282 29
-24 51 -23 77 4 19 21 21 36 24 205 l3 183 32 31 c26 26 42 33 85 37 47 4 58
1 84 -21 l29 -25 5 -197 c5 -192 6 -197 29 -216 31 -25 47 -24 76 6 25 24 25
27 25 195 0 189 7 218 60 245 34 17 102 20 132 4 39 -21 48 -67 48 -253 0
-167 1 -176 22 -196 26 -24 46 -25 76 -4 23 16 23 16 20 238 -3 211 -4 223
-26 262 -33 57 -73 79 -147 79 -69 0 -138 -34 -176 -86 l-21 -31 -23 39 c-13
21 -37 46 -54 56 -42 24 -117 31 -164 13z"/>
<path d="M752 820 c-42 -40 -33 -58 139 -276 6 -7 -21 -48 -76 -115 -54 -65
-85 -111 -83 -123 4 -28 51 -60 76 -52 12 4 51 45 87 91 36 46 69 86 74 89 5
3 42 -35 81 -84 40 -49 81 -92 91 -95 10 -4 29 -1 41 6 59 31 51 61 -48 183
l-86 106 80 97 c43 54 82 106 85 116 13 37 -34 84 -72 72 -10 -3 -49 -48 -86
-100 -38 -52 -72 -95 -75 -95 -3 0 -31 32 -60 72 -103 135 -124 148 -168 108z"/>
<path d="M5430 820 c-19 -19 -20 -33 -20 -222 0 -175 3 -209 19 -243 51 -114
191 -147 306 -74 l48 30 -6 -41 c-7 -54 -31 -88 -72 -106 -45 -18 -116 -18
-162 1 -19 8 -43 15 -53 15 -28 0 -52 -35 -48 -71 5 -48 56 -72 162 -73 104
-1 165 17 221 66 70 62 75 90 75 420 0 265 -1 279 -20 298 -24 24 -48 25 -77
5 -20 -14 -22 -24 -25 -203 -3 -203 -9 -226 -64 -250 -33 -16 -93 -15 -124 1
-50 25 -60 65 -60 255 0 159 -2 174 -20 192 -11 11 -29 20 -40 20 -11 0 -29
-9 -40 -20z"/>
</g>
</svg>
