<?xml version="1.0" standalone="no"?>
<!DOCTYPE svg PUBLIC "-//W3C//DTD SVG 20010904//EN"
 "http://www.w3.org/TR/2001/REC-SVG-20010904/DTD/svg10.dtd">
<svg version="1.0" xmlns="http://www.w3.org/2000/svg"
 width="237.000000pt" height="223.000000pt" viewBox="0 0 237.000000 223.000000"
 preserveAspectRatio="xMidYMid meet">

<g transform="translate(0.000000,223.000000) scale(0.100000,-0.100000)"
fill="#000000" stroke="none">
<path d="M352 2016 l-143 -111 41 -3 40 -3 0 -175 0 -174 65 0 65 0 0 85 0 85
75 0 75 0 0 -85 0 -85 65 0 65 0 0 175 0 175 46 0 47 0 -62 47 -61 47 0 68 0
68 -35 0 c-34 0 -35 -1 -35 -41 l0 -41 -42 33 c-24 18 -47 36 -53 39 -5 4 -74
-43 -153 -104z"/>
<path d="M1506 2121 c-4 -5 -12 -35 -19 -68 l-13 -58 -58 -3 c-57 -3 -58 -3
-53 -30 3 -15 11 -89 18 -164 l13 -138 101 0 101 0 13 138 c7 75 15 149 18
165 5 26 4 27 -42 27 -44 0 -47 1 -41 23 3 12 6 30 6 40 0 14 9 17 55 17 54 0
55 0 55 30 l0 30 -74 0 c-41 0 -77 -4 -80 -9z"/>
<path d="M2142 1999 c-22 -38 -25 -40 -41 -25 -10 9 -42 24 -72 35 l-54 18
-50 -33 c-31 -22 -62 -34 -83 -34 -33 0 -42 -11 -58 -75 l-6 -25 196 0 196 0
-5 23 c-4 16 3 40 24 75 l30 51 -22 16 c-29 20 -29 20 -55 -26z"/>
<path d="M1770 1755 l64 -65 141 0 141 0 64 65 64 65 -269 0 -269 0 64 -65z"/>
<path d="M1437 1433 c-7 -36 -2 -43 31 -43 23 0 6 -20 -138 -165 l-165 -165
23 -22 22 -23 164 164 164 164 7 -33 c6 -28 10 -31 33 -25 15 4 28 8 30 10 7
7 -22 118 -34 130 -7 7 -34 16 -60 20 -26 3 -52 9 -59 11 -7 3 -15 -6 -18 -23z"/>
<path d="M437 1374 c-49 -30 -55 -38 -47 -54 16 -29 27 -32 55 -14 l25 16 0
-176 0 -176 30 0 30 0 0 170 c0 94 2 170 5 170 3 0 14 -6 25 -12 16 -11 22 -9
34 7 9 11 16 23 16 27 0 6 -104 78 -113 78 -1 0 -28 -16 -60 -36z"/>
<path d="M190 794 l0 -65 42 23 c27 15 51 39 66 66 l23 42 -65 0 -66 0 0 -66z"/>
<path d="M390 845 c0 -57 -92 -160 -158 -178 l-43 -11 3 -70 3 -69 41 -14 c60
-20 131 -92 146 -148 l12 -45 206 0 206 0 11 43 c17 63 86 128 166 157 26 9
27 12 27 79 l0 69 -31 6 c-65 13 -152 101 -166 169 l-5 27 -209 0 c-182 0
-209 -2 -209 -15z m250 -65 c0 -12 11 -31 25 -43 14 -12 29 -37 34 -54 l10
-33 -39 0 c-24 0 -40 5 -44 15 -7 20 -45 19 -52 0 -9 -21 14 -45 42 -45 31 0
72 -38 83 -75 11 -41 -5 -92 -34 -111 -14 -9 -25 -25 -25 -35 0 -15 -7 -19
-40 -19 -30 0 -40 4 -40 16 0 8 -13 28 -29 44 -16 16 -31 40 -33 55 -5 23 -3
25 32 25 25 0 40 -5 44 -16 9 -23 50 -14 54 13 3 18 -4 24 -38 33 -46 12 -85
48 -92 83 -7 36 10 84 37 105 14 11 25 29 25 41 0 18 6 21 40 21 34 0 40 -3
40 -20z"/>
<path d="M902 818 c15 -27 39 -51 66 -66 l42 -23 0 65 0 66 -66 0 -65 0 23
-42z"/>
<path d="M1943 797 c-53 -44 -141 -77 -210 -77 l-33 0 0 -102 c1 -251 57 -387
207 -497 l66 -49 33 20 c55 33 130 104 165 159 57 89 71 147 76 317 l5 152
-33 0 c-54 0 -138 26 -182 57 -23 15 -47 31 -53 36 -7 4 -24 -3 -41 -16z m67
-257 l0 -50 55 0 55 0 0 -40 0 -40 -55 0 -55 0 0 -50 0 -50 -35 0 -35 0 0 50
0 50 -55 0 -55 0 0 40 0 40 55 0 55 0 0 50 0 50 35 0 35 0 0 -50z"/>
<path d="M1461 511 c-23 -17 -23 -19 -6 -44 l17 -27 -141 0 -141 0 0 -30 0
-30 140 0 140 0 -15 -24 c-12 -18 -13 -25 -3 -33 32 -25 38 -23 75 32 l37 56
-18 33 c-9 17 -27 44 -39 59 -22 26 -22 26 -46 8z"/>
<path d="M190 375 l0 -65 65 0 65 0 -20 40 c-18 34 -81 90 -102 90 -5 0 -8
-29 -8 -65z"/>
<path d="M957 415 c-20 -14 -46 -44 -57 -65 l-20 -40 65 0 65 0 0 65 c0 36 -3
65 -8 65 -4 0 -24 -11 -45 -25z"/>
<path d="M190 210 l0 -30 410 0 410 0 0 30 0 30 -410 0 -410 0 0 -30z"/>
<path d="M190 105 l0 -35 410 0 410 0 0 35 0 35 -410 0 -410 0 0 -35z"/>
</g>
</svg>
